HIERARCHY
ROOT root
{
	OFFSET	0	13.1	24.9
	CHANNELS 6  Xposition Yposition Zposition Xrotation Yrotation Zrotation
	JOINT spine_1
	{
		OFFSET	0	9.99999	0
		CHANNELS 3  Xrotation Yrotation Zrotation
		JOINT spine_2
		{
			OFFSET	0	112	-10
			CHANNELS 3  Xrotation Yrotation Zrotation
			JOINT spine_3
			{
				OFFSET	0	206.5	19.3
				CHANNELS 3  Xrotation Yrotation Zrotation
				JOINT spine_4
				{
					OFFSET	0	110.4	14.6
					CHANNELS 3  Xrotation Yrotation Zrotation
					JOINT neck_1
					{
						OFFSET	0	71.8	-50.3
						CHANNELS 3  Xrotation Yrotation Zrotation
						JOINT neck_2
						{
							OFFSET	0	86.2	-25.8
							CHANNELS 3  Xrotation Yrotation Zrotation
							JOINT head_ee
							{
								OFFSET	0	179.8	-8.7
								CHANNELS 3  Xrotation Yrotation Zrotation
								End Site
								{
									OFFSET	1	0	0
								}
							}
						}
					}
					JOINT left_clavicle
					{
						OFFSET	-43.2	22.4	-70.8
						CHANNELS 3  Xrotation Yrotation Zrotation
						JOINT left_shoulder
						{
							OFFSET	-93.9	-5.79999	48.7
							CHANNELS 3  Xrotation Yrotation Zrotation
							JOINT left_elbow
							{
								OFFSET	-291.4	-30.8	15.2
								CHANNELS 3  Xrotation Yrotation Zrotation
								JOINT left_lowarm_twist
								{
									OFFSET	-110.7	-3.89999	13.6
									CHANNELS 3  Xrotation Yrotation Zrotation
									JOINT left_hand
									{
										OFFSET	-110.7	-3.89999	13.6
										CHANNELS 3  Xrotation Yrotation Zrotation
										JOINT left_ee
										{
											OFFSET	-80.8	-5.10001	12.1
											CHANNELS 3  Xrotation Yrotation Zrotation
											End Site
											{
												OFFSET	1	0	0
											}
										}
									}
								}
							}
						}
					}
					JOINT right_clavicle
					{
						OFFSET	43.2	22.4	-70.8
						CHANNELS 3  Xrotation Yrotation Zrotation
						JOINT right_shoulder
						{
							OFFSET	93.9	-5.79999	48.7
							CHANNELS 3  Xrotation Yrotation Zrotation
							JOINT right_elbow
							{
								OFFSET	291.4	-30.8	15.2
								CHANNELS 3  Xrotation Yrotation Zrotation
								JOINT right_lowarm_twist
								{
									OFFSET	110.7	-3.89999	13.6
									CHANNELS 3  Xrotation Yrotation Zrotation
									JOINT right_hand
									{
										OFFSET	110.7	-3.89999	13.6
										CHANNELS 3  Xrotation Yrotation Zrotation
										JOINT right_ee
										{
											OFFSET	80.8	-5.10001	12.1
											CHANNELS 3  Xrotation Yrotation Zrotation
											End Site
											{
												OFFSET	1	0	0
											}
										}
									}
								}
							}
						}
					}
				}
			}
		}
	}
	JOINT left_hip
	{
		OFFSET	-82.8	-127.5	0.300001
		CHANNELS 3  Xrotation Yrotation Zrotation
		JOINT left_knee
		{
			OFFSET	-28.2	-396.7	2.2
			CHANNELS 3  Xrotation Yrotation Zrotation
			JOINT left_ankle
			{
				OFFSET	-11.7	-411.3	35.4
				CHANNELS 3  Xrotation Yrotation Zrotation
				JOINT left_toes
				{
					OFFSET	0	-60	-88.6
					CHANNELS 3  Xrotation Yrotation Zrotation
					JOINT left_foot_ee
					{
						OFFSET	-22.5	-16.5	-42.2
						CHANNELS 3  Xrotation Yrotation Zrotation
						End Site
						{
							OFFSET	1	0	0
						}
					}
				}
			}
		}
	}
	JOINT right_hip
	{
		OFFSET	82.8	-127.5	0.300001
		CHANNELS 3  Xrotation Yrotation Zrotation
		JOINT right_knee
		{
			OFFSET	28.2	-396.7	2.2
			CHANNELS 3  Xrotation Yrotation Zrotation
			JOINT right_ankle
			{
				OFFSET	11.7	-411.3	35.4
				CHANNELS 3  Xrotation Yrotation Zrotation
				JOINT right_toes
				{
					OFFSET	0	-60	-88.6
					CHANNELS 3  Xrotation Yrotation Zrotation
					JOINT right_foot_ee
					{
						OFFSET	22.5	-16.5	-42.2
						CHANNELS 3  Xrotation Yrotation Zrotation
						End Site
						{
							OFFSET	1	0	0
						}
					}
				}
			}
		}
	}
}
MOTION
Frames: 6
Frame Time: 0.02
516.516 744.017 -604.748 178.799 -60.0621 177.009 -1.51546 0.805556 2.9793 -1.51073 0.614432 3.02447 -1.47304 -0.114089 3.08408 -1.48612 0.374183 3.06344 -12.0886 11.6278 1.51227 -12.3367 21.1 4.81293 -0.0 0.0 -0.0 4.78638 25.1911 9.25613 -3.70971 -6.67762 59.848 3.02515 -56.2732 1.61803 -85.1444 -8.46998 5.18101 -1.49878 -1.10543 -10.5626 -0.0 0.0 -0.0 12.4393 20.0192 -24.9439 -16.399 24.6572 -62.2401 0.470185 13.1115 -0.0540348 40.2849 0.364167 5.02872 -1.58937 -26.785 -1.73732 0.0 0.0 0.0 -6.20179 17.0408 3.07401 4.14079 -0.19253 -0.606017 17.884 10.1936 -2.46817 -39.9959 0.0 0.0 -0.0 0.0 -0.0 15.3477 38.7895 0.455957 -24.1978 -0.222237 -3.67919 17.2881 5.04559 2.44591 -20.5377 0.0 0.0 0.0 0.0 0.0 
516.18 742.648 -599.708 179.511 -60.8129 178.284 -1.47744 0.767146 2.79737 -1.47327 0.587662 2.84046 -1.43953 -0.0951466 2.89901 -1.45108 0.363699 2.8777 -12.4162 11.4762 -1.29121 -12.7244 22.6131 2.16658 -0.0 0.0 -0.0 4.75774 24.9688 9.22524 -3.98949 -7.82692 59.982 3.00704 -56.1142 1.60298 -85.1359 -8.46891 5.18122 -0.858567 -1.13489 -6.24044 -0.0 0.0 -0.0 12.4773 22.783 -24.8063 -15.4153 25.2241 -63.0681 0.437937 12.2403 -0.0469581 39.2502 0.310836 4.9076 -1.9556 -27.6843 -0.152159 0.0 0.0 0.0 -5.91151 13.6412 1.83174 4.88898 -0.231977 -0.713989 19.1636 11.325 -2.6333 -40.1858 0.0 0.0 -0.0 0.0 -0.0 15.7877 38.9598 -0.510871 -23.7008 -0.233374 -3.60372 17.4251 4.22274 2.45626 -17.2141 0.0 0.0 0.0 0.0 0.0 
518.354 742.095 -596.336 178.595 -61.5793 177.428 -1.58638 0.706334 2.87093 -1.58195 0.522297 2.91001 -1.55056 -0.180824 2.95094 -1.5626 0.287285 2.94249 -13.2972 10.6127 -2.14165 -13.6134 21.5322 1.26135 -0.0 0.0 -0.0 4.71669 23.9841 9.20089 -4.58902 -7.64877 59.6877 3.0527 -56.5123 1.64097 -83.3499 -8.24505 5.22212 -0.694159 -0.927315 -5.04374 -0.0 0.0 -0.0 12.3691 23.1421 -24.5237 -13.9988 26.0793 -63.1622 0.420429 11.7649 -0.0433174 38.5262 0.274836 4.82231 -2.39439 -27.3568 2.40547 0.0 0.0 0.0 -5.54019 12.8308 1.40473 2.47584 -0.109844 -0.363996 16.7815 10.6292 -2.32774 -40.1692 0.0 0.0 -0.0 0.0 -0.0 15.4498 33.7417 -0.158561 -24.1987 -0.222216 -3.67933 18.1537 6.14439 2.56924 -11.1152 0.0 0.0 0.0 0.0 0.0 
524.234 741.617 -588.827 177.741 -62.244 176.603 -1.63159 0.743816 2.9257 -1.627 0.556223 2.96705 -1.59304 -0.163554 3.01426 -1.60558 0.314326 3.0023 -13.5605 10.9171 -4.56376 -13.9168 23.6016 -0.882729 -0.0 0.0 -0.0 4.56008 23.7366 8.99077 -5.18203 -8.16888 59.6304 2.97712 -55.8488 1.57818 -82.6671 -8.15911 5.23589 -0.357832 -0.107638 -2.43621 -0.0 0.0 -0.0 12.4269 24.319 -24.5409 -13.099 26.2593 -63.0723 0.435029 12.1615 -0.0463437 37.5242 0.226793 4.70353 -2.29756 -24.8011 3.16674 0.0 0.0 0.0 -6.04968 12.981 1.21382 1.66958 -0.0723444 -0.245975 19.9785 13.1853 -2.74332 -40.0525 0.0 0.0 -0.0 0.0 -0.0 14.3185 31.3904 0.00574516 -24.5633 -0.213632 -3.73461 18.7364 6.10074 2.64386 -7.65678 0.0 0.0 0.0 0.0 0.0 
530.006 737.871 -582.524 177.077 -62.9428 176.028 -1.69686 0.784158 2.98945 -1.69208 0.592432 3.03324 -1.6552 -0.147392 3.08698 -1.66834 0.341754 3.07156 -16.3721 10.2099 -3.5015 -16.8406 21.5673 0.45508 -0.0 0.0 -0.0 4.61244 24.7075 9.0364 -5.47574 -8.40925 59.7256 2.97492 -55.8291 1.57636 -82.2289 -8.10386 5.24418 -0.0620035 0.0346265 -0.399408 -0.0 0.0 -0.0 11.9067 25.2989 -23.2455 -11.4321 26.7245 -64.5648 0.432834 12.102 -0.0458824 37.9228 0.245652 4.75087 -2.20695 -25.2103 2.45037 0.0 0.0 0.0 -5.58289 13.4518 0.8019 -1.64029 0.0640548 0.243569 23.4928 14.323 -3.18138 -40.1239 0.0 0.0 -0.0 0.0 -0.0 13.8834 28.8585 0.0865296 -25.6405 -0.186209 -3.89765 19.4351 7.21355 2.74621 -3.05636 0.0 0.0 0.0 0.0 0.0 
534.067 735.425 -580.767 175.756 -62.7308 174.679 -1.80386 0.80093 3.00381 -1.79904 0.608258 3.04863 -1.76093 -0.141406 3.10544 -1.77421 0.350577 3.08885 -16.3103 10.7951 -4.52362 -16.8398 23.2688 -0.283177 -0.0 0.0 -0.0 4.35539 25.0557 8.67955 -5.90934 -9.18253 59.7273 2.90987 -55.2387 1.52273 -81.6369 -8.02911 5.25471 0.163453 -0.200599 1.00754 -0.0 0.0 -0.0 11.9652 26.1393 -23.2858 -10.6613 26.9505 -64.7348 0.42553 11.9036 -0.0443633 36.7574 0.191435 4.61207 -2.39135 -24.2323 3.98838 0.0 0.0 0.0 -5.58262 13.7026 0.769194 -3.4018 0.125039 0.507019 26.1273 16.1441 -3.50917 -40.0997 0.0 0.0 -0.0 0.0 -0.0 13.1742 26.8242 0.652934 -26.1291 -0.172762 -3.97142 19.9438 7.01426 2.80853 0.146681 -0.0 -0.0 0.0 0.0 0.0 
